# xmcd CD database file
#
# Track frame offsets:
#	150
#	10527
#	23578
#	37304
#	51290
#	64906
#	91212
#	105123
#	118312
#	128865
#	140942
#	151913
#
# Disc length: 2229 seconds
#
# Revision: 0
# Processed by: cddbd v1.5.2PL0 Copyright (c) Steve Scherf et al.
# Submitted via: CDex 1.77
#
DISCID=9e08b30c
DTITLE=Louis Armstrong - What A Wonderul World. The Best of Louis Armstrong for SUZUKI
DYEAR=2006
DGENRE=Jazz
TTITLE0=What a Wonderful World
TTITLE1=La Vie En Rose
TTITLE2=Hello Dolly
TTITLE3=On The Sunny Side Of The Street
TTITLE4=Blueberry Hill
TTITLE5=C'est Si Bon
TTITLE6=The Dummy Song
TTITLE7=Chloe
TTITLE8=Kiss On Fire
TTITLE9=Sittin' In The Sun
TTITLE10=Takes Two Tango
TTITLE11=La Cucaracha
EXTD=YEAR: 2006
EXTT0=
EXTT1=
EXTT2=
EXTT3=
EXTT4=
EXTT5=
EXTT6=
EXTT7=
EXTT8=
EXTT9=
EXTT10=
EXTT11=
PLAYORDER=
